<svg width="26" height="30" viewBox="0 0 26 30" fill="none" xmlns="http://www.w3.org/2000/svg">
<g filter="url(#filter0_d_519_1521)">
<path d="M19 16.08C18.24 16.08 17.56 16.38 17.04 16.85L9.91 12.7C9.96 12.47 10 12.24 10 12C10 11.76 9.96 11.53 9.91 11.3L16.96 7.19C17.5 7.69 18.21 8 19 8C20.66 8 22 6.66 22 5C22 3.34 20.66 2 19 2C17.34 2 16 3.34 16 5C16 5.24 16.04 5.47 16.09 5.7L9.04 9.81C8.5 9.31 7.79 9 7 9C5.34 9 4 10.34 4 12C4 13.66 5.34 15 7 15C7.79 15 8.5 14.69 9.04 14.19L16.16 18.35C16.11 18.56 16.08 18.78 16.08 19C16.08 20.61 17.39 21.92 19 21.92C20.61 21.92 21.92 20.61 21.92 19C21.92 17.39 20.61 16.08 19 16.08ZM19 4C19.55 4 20 4.45 20 5C20 5.55 19.55 6 19 6C18.45 6 18 5.55 18 5C18 4.45 18.45 4 19 4ZM7 13C6.45 13 6 12.55 6 12C6 11.45 6.45 11 7 11C7.55 11 8 11.45 8 12C8 12.55 7.55 13 7 13ZM19 20.02C18.45 20.02 18 19.57 18 19.02C18 18.47 18.45 18.02 19 18.02C19.55 18.02 20 18.47 20 19.02C20 19.57 19.55 20.02 19 20.02Z" fill="#0B222F"/>
</g>
<defs>
<filter id="filter0_d_519_1521" x="-3" y="0" width="32" height="32" filterUnits="userSpaceOnUse" color-interpolation-filters="sRGB">
<feFlood flood-opacity="0" result="BackgroundImageFix"/>
<feColorMatrix in="SourceAlpha" type="matrix" values="0 0 0 0 0 0 0 0 0 0 0 0 0 0 0 0 0 0 127 0" result="hardAlpha"/>
<feOffset dy="4"/>
<feGaussianBlur stdDeviation="2"/>
<feComposite in2="hardAlpha" operator="out"/>
<feColorMatrix type="matrix" values="0 0 0 0 0 0 0 0 0 0 0 0 0 0 0 0 0 0 0.25 0"/>
<feBlend mode="normal" in2="BackgroundImageFix" result="effect1_dropShadow_519_1521"/>
<feBlend mode="normal" in="SourceGraphic" in2="effect1_dropShadow_519_1521" result="shape"/>
</filter>
</defs>
</svg>
