<svg width="24" height="25" viewBox="0 0 24 25" fill="none" xmlns="http://www.w3.org/2000/svg">
<g clip-path="url(#clip0_171_185)">
<path d="M24 12.75C24 18.549 18.627 23.25 12 23.25C10.8115 23.2516 9.62788 23.0973 8.4795 22.791C7.6035 23.235 5.592 24.087 2.208 24.642C1.908 24.69 1.68 24.378 1.7985 24.099C2.3295 22.845 2.8095 21.174 2.9535 19.65C1.116 17.805 0 15.39 0 12.75C0 6.951 5.373 2.25 12 2.25C18.627 2.25 24 6.951 24 12.75ZM6.75 8.25C6.55109 8.25 6.36032 8.32902 6.21967 8.46967C6.07902 8.61032 6 8.80109 6 9C6 9.19891 6.07902 9.38968 6.21967 9.53033C6.36032 9.67098 6.55109 9.75 6.75 9.75H17.25C17.4489 9.75 17.6397 9.67098 17.7803 9.53033C17.921 9.38968 18 9.19891 18 9C18 8.80109 17.921 8.61032 17.7803 8.46967C17.6397 8.32902 17.4489 8.25 17.25 8.25H6.75ZM6.75 12C6.55109 12 6.36032 12.079 6.21967 12.2197C6.07902 12.3603 6 12.5511 6 12.75C6 12.9489 6.07902 13.1397 6.21967 13.2803C6.36032 13.421 6.55109 13.5 6.75 13.5H17.25C17.4489 13.5 17.6397 13.421 17.7803 13.2803C17.921 13.1397 18 12.9489 18 12.75C18 12.5511 17.921 12.3603 17.7803 12.2197C17.6397 12.079 17.4489 12 17.25 12H6.75ZM6.75 15.75C6.55109 15.75 6.36032 15.829 6.21967 15.9697C6.07902 16.1103 6 16.3011 6 16.5C6 16.6989 6.07902 16.8897 6.21967 17.0303C6.36032 17.171 6.55109 17.25 6.75 17.25H12.75C12.9489 17.25 13.1397 17.171 13.2803 17.0303C13.421 16.8897 13.5 16.6989 13.5 16.5C13.5 16.3011 13.421 16.1103 13.2803 15.9697C13.1397 15.829 12.9489 15.75 12.75 15.75H6.75Z" fill="#0B222F"/>
</g>
<defs>
<clipPath id="clip0_171_185">
<rect width="24" height="24" fill="white" transform="translate(0 0.75)"/>
</clipPath>
</defs>
</svg>
