<svg width="63" height="31" viewBox="0 0 63 31" fill="none" xmlns="http://www.w3.org/2000/svg">
<rect width="63" height="31" rx="5" fill="#0B222F"/>
<path d="M22.328 12.328C22.28 12.408 22.2267 12.4693 22.168 12.512C22.1147 12.5493 22.048 12.568 21.968 12.568C21.8773 12.568 21.7707 12.5227 21.648 12.432C21.5253 12.3413 21.3707 12.2427 21.184 12.136C21.0027 12.024 20.7813 11.9227 20.52 11.832C20.264 11.7413 19.952 11.696 19.584 11.696C19.2373 11.696 18.9307 11.744 18.664 11.84C18.4027 11.9307 18.1813 12.056 18 12.216C17.824 12.376 17.6907 12.5653 17.6 12.784C17.5093 12.9973 17.464 13.2293 17.464 13.48C17.464 13.8 17.5413 14.0667 17.696 14.28C17.856 14.488 18.064 14.6667 18.32 14.816C18.5813 14.9653 18.8747 15.096 19.2 15.208C19.5307 15.3147 19.8667 15.4267 20.208 15.544C20.5547 15.6613 20.8907 15.7947 21.216 15.944C21.5467 16.088 21.84 16.272 22.096 16.496C22.3573 16.72 22.5653 16.9947 22.72 17.32C22.88 17.6453 22.96 18.0453 22.96 18.52C22.96 19.0213 22.8747 19.4933 22.704 19.936C22.5333 20.3733 22.2827 20.7547 21.952 21.08C21.6267 21.4053 21.224 21.6613 20.744 21.848C20.2693 22.0347 19.728 22.128 19.12 22.128C18.3733 22.128 17.696 21.9947 17.088 21.728C16.48 21.456 15.96 21.0907 15.528 20.632L15.976 19.896C16.0187 19.8373 16.0693 19.7893 16.128 19.752C16.192 19.7093 16.2613 19.688 16.336 19.688C16.4053 19.688 16.4827 19.7173 16.568 19.776C16.6587 19.8293 16.76 19.8987 16.872 19.984C16.984 20.0693 17.112 20.1627 17.256 20.264C17.4 20.3653 17.5627 20.4587 17.744 20.544C17.9307 20.6293 18.1413 20.7013 18.376 20.76C18.6107 20.8133 18.8747 20.84 19.168 20.84C19.536 20.84 19.864 20.7893 20.152 20.688C20.44 20.5867 20.6827 20.4453 20.88 20.264C21.0827 20.0773 21.2373 19.856 21.344 19.6C21.4507 19.344 21.504 19.0587 21.504 18.744C21.504 18.3973 21.424 18.1147 21.264 17.896C21.1093 17.672 20.904 17.4853 20.648 17.336C20.392 17.1867 20.0987 17.0613 19.768 16.96C19.4373 16.8533 19.1013 16.7467 18.76 16.64C18.4187 16.528 18.0827 16.4 17.752 16.256C17.4213 16.112 17.128 15.9253 16.872 15.696C16.616 15.4667 16.408 15.1813 16.248 14.84C16.0933 14.4933 16.016 14.0667 16.016 13.56C16.016 13.1547 16.0933 12.7627 16.248 12.384C16.408 12.0053 16.6373 11.6693 16.936 11.376C17.24 11.0827 17.6107 10.848 18.048 10.672C18.4907 10.496 18.9973 10.408 19.568 10.408C20.208 10.408 20.7893 10.5093 21.312 10.712C21.84 10.9147 22.304 11.208 22.704 11.592L22.328 12.328ZM26.6955 15.56H27.2795C27.4822 15.56 27.6448 15.536 27.7675 15.488C27.8902 15.4347 28.0022 15.3467 28.1035 15.224L31.9195 10.904C32.0262 10.7653 32.1382 10.6693 32.2555 10.616C32.3728 10.5627 32.5168 10.536 32.6875 10.536H33.9995L29.6315 15.472C29.5248 15.6 29.4208 15.7067 29.3195 15.792C29.2235 15.872 29.1195 15.9387 29.0075 15.992C29.1515 16.04 29.2822 16.112 29.3995 16.208C29.5168 16.2987 29.6315 16.4187 29.7435 16.568L34.3035 22H32.9595C32.8582 22 32.7702 21.9947 32.6955 21.984C32.6262 21.968 32.5648 21.9467 32.5115 21.92C32.4582 21.888 32.4102 21.8533 32.3675 21.816C32.3302 21.7733 32.2928 21.7253 32.2555 21.672L28.3035 17.12C28.1968 16.9867 28.0822 16.8933 27.9595 16.84C27.8368 16.7813 27.6502 16.752 27.3995 16.752H26.6955V22H25.1515V10.536H26.6955V15.56ZM37.2973 22H35.7453V10.536H37.2973V22ZM43.6136 16.48C44.0563 16.48 44.4456 16.4213 44.7816 16.304C45.123 16.1867 45.4083 16.024 45.6376 15.816C45.8723 15.6027 46.0483 15.3493 46.1656 15.056C46.283 14.7627 46.3416 14.44 46.3416 14.088C46.3416 13.3573 46.115 12.7867 45.6616 12.376C45.2136 11.9653 44.531 11.76 43.6136 11.76H41.7736V16.48H43.6136ZM43.6136 10.536C44.339 10.536 44.9683 10.6213 45.5016 10.792C46.0403 10.9573 46.4856 11.1947 46.8376 11.504C47.1896 11.8133 47.451 12.1867 47.6216 12.624C47.7976 13.0613 47.8856 13.5493 47.8856 14.088C47.8856 14.6213 47.7923 15.1093 47.6056 15.552C47.419 15.9947 47.1443 16.376 46.7816 16.696C46.4243 17.016 45.979 17.2667 45.4456 17.448C44.9176 17.624 44.307 17.712 43.6136 17.712H41.7736V22H40.2296V10.536H43.6136Z" fill="white"/>
</svg>
